# xmcd
#
# Track frame offsets:
#	150
#	16409
#	36850
#	58491
#
# Disc length: 1043 seconds
#
# Revision: 1
# Processed by: cddbd v1.5.2PL0 Copyright (c) Steve Scherf et al.
# Submitted via: EasyCDDAExtractor 11.0.2.1
#
DISCID=32041104
DTITLE=Wherrol B Flat - Life on the Run
DYEAR=2009
DGENRE=Country
TTITLE0=A Day in the Run
TTITLE1=Don't Get Much Better
TTITLE2=Through My Tears
TTITLE3=Where I want to be
EXTD=
EXTT0=
EXTT1=
EXTT2=
EXTT3=
PLAYORDER=
